<svg width="209" height="169" viewBox="0 0 209 169" fill="none" xmlns="http://www.w3.org/2000/svg">
<g clip-path="url(#clip0_1433_1573)">
<path d="M139.174 169L139.129 168.996L69.8265 162.552L6.80708 168.412C5.16167 168.565 3.52294 168.057 2.25138 167.001C0.979824 165.944 0.179603 164.425 0.0267592 162.778C0.00896943 162.587 6.74429e-05 162.394 5.19853e-05 162.202V12.1771C-0.00630887 10.6211 0.571268 9.11935 1.61843 7.96931C2.6656 6.81926 4.10599 6.10471 5.65445 5.96714L69.8266 0L69.8709 0.00421427L139.174 6.4483L202.193 0.588443C203.838 0.435441 205.477 0.942978 206.749 1.9994C208.02 3.05582 208.82 4.57459 208.973 6.2216C208.991 6.41335 209 6.60561 209 6.79839V156.823C209.006 158.379 208.429 159.881 207.382 161.031C206.334 162.181 204.894 162.895 203.346 163.033L139.174 169Z" fill="#201942"/>
<path d="M96.6062 55.5013C83.1911 45.7215 69.0761 36.4479 54.6568 27.9395L53.9331 27.5126V56.3696H97.7973L96.6062 55.5013ZM54.8916 55.4101V29.1941C68.6088 37.3163 82.0408 46.1293 94.8498 55.4101L54.8916 55.4101ZM164.5 114.806C158.698 108.768 152.746 102.868 146.644 97.1053C144.962 95.515 143.269 93.9374 141.566 92.3726C131.172 82.8159 120.437 73.727 109.36 65.1059L109.231 65.0052H53.9331V115.619H165.281L164.5 114.806ZM54.8916 114.659V65.9647H108.902C119.583 74.2811 129.975 83.063 140.078 92.3102C141.832 93.915 143.574 95.5325 145.304 97.1629C151.353 102.853 157.26 108.685 163.026 114.659H54.8916ZM164.5 114.806C158.698 108.768 152.746 102.868 146.644 97.1053C144.962 95.515 143.269 93.9374 141.566 92.3726C131.172 82.8159 120.437 73.727 109.36 65.1059L109.231 65.0052H53.9331V115.619H165.281L164.5 114.806ZM54.8916 114.659V65.9647H108.902C119.583 74.2811 129.975 83.063 140.078 92.3102C141.832 93.915 143.574 95.5325 145.304 97.1629C151.353 102.853 157.26 108.685 163.026 114.659H54.8916ZM96.6062 55.5013C83.1911 45.7215 69.0761 36.4479 54.6568 27.9395L53.9331 27.5126V56.3696H97.7973L96.6062 55.5013ZM54.8916 55.4101V29.1941C68.6088 37.3163 82.0408 46.1293 94.8498 55.4101L54.8916 55.4101ZM96.6062 55.5013C83.1911 45.7215 69.0761 36.4479 54.6568 27.9395L53.9331 27.5126V56.3696H97.7973L96.6062 55.5013ZM54.8916 55.4101V29.1941C68.6088 37.3163 82.0408 46.1293 94.8498 55.4101L54.8916 55.4101ZM164.5 114.806C158.698 108.768 152.746 102.868 146.644 97.1053C144.962 95.515 143.269 93.9374 141.566 92.3726C131.172 82.8159 120.437 73.727 109.36 65.1059L109.231 65.0052H53.9331V115.619H165.281L164.5 114.806ZM54.8916 114.659V65.9647H108.902C119.583 74.2811 129.975 83.063 140.078 92.3102C141.832 93.915 143.574 95.5325 145.304 97.1629C151.353 102.853 157.26 108.685 163.026 114.659H54.8916ZM6.48853 124.254V125.214H44.3473V139.127H6.48853V140.086H45.3059V124.254H6.48853ZM53.9331 148.722V158.444L54.8916 158.355V149.681H202.512V148.722L53.9331 148.722ZM202.512 125.214V124.254H53.9331V140.086H202.512V139.127H54.8916V125.214L202.512 125.214ZM112.993 55.4101C94.6033 41.2105 75.1824 28.4017 54.8916 17.09V7.375L53.933 7.46375V17.2539L54.6712 18.0663C74.8793 29.3472 94.2215 42.1166 112.538 56.2689L112.667 56.3696H202.512V55.4101L112.993 55.4101ZM44.3473 55.4101H6.48853V56.3696H45.3059V8.26494L44.3473 8.35369L44.3473 55.4101ZM202.512 65.0052H123.528L124.561 65.8543C134.285 73.8638 143.833 82.3586 153.205 91.3387C154.538 92.6148 155.865 93.9014 157.188 95.1983C163.773 101.639 170.23 108.29 176.558 115.151L177.349 115.619H202.512V114.659H177.409C171.15 107.866 164.754 101.27 158.223 94.8697C156.917 93.5888 155.606 92.3166 154.291 91.0533C145.122 82.2474 135.758 73.8846 126.197 65.9647H202.512V65.0052ZM6.48853 148.722V149.681H44.3473V159.334L45.3059 159.245V148.722H6.48853ZM6.48853 65.0052V65.9647H44.3473V114.659H6.48853V115.619H45.3059V65.0052H6.48853ZM96.6062 55.5013C83.1911 45.7215 69.0761 36.4479 54.6568 27.9395L53.9331 27.5126V56.3696H97.7973L96.6062 55.5013ZM54.8916 55.4101V29.1941C68.6088 37.3163 82.0408 46.1293 94.8498 55.4101L54.8916 55.4101ZM164.5 114.806C158.698 108.768 152.746 102.868 146.644 97.1053C144.962 95.515 143.269 93.9374 141.566 92.3726C131.172 82.8159 120.437 73.727 109.36 65.1059L109.231 65.0052H53.9331V115.619H165.281L164.5 114.806ZM54.8916 114.659V65.9647H108.902C119.583 74.2811 129.975 83.063 140.078 92.3102C141.832 93.915 143.574 95.5325 145.304 97.1629C151.353 102.853 157.26 108.685 163.026 114.659H54.8916ZM96.6062 55.5013C83.1911 45.7215 69.0761 36.4479 54.6568 27.9395L53.9331 27.5126V56.3696H97.7973L96.6062 55.5013ZM54.8916 55.4101V29.1941C68.6088 37.3163 82.0408 46.1293 94.8498 55.4101L54.8916 55.4101ZM164.5 114.806C158.698 108.768 152.746 102.868 146.644 97.1053C144.962 95.515 143.269 93.9374 141.566 92.3726C131.172 82.8159 120.437 73.727 109.36 65.1059L109.231 65.0052H53.9331V115.619H165.281L164.5 114.806ZM54.8916 114.659V65.9647H108.902C119.583 74.2811 129.975 83.063 140.078 92.3102C141.832 93.915 143.574 95.5325 145.304 97.1629C151.353 102.853 157.26 108.685 163.026 114.659H54.8916Z" fill="white"/>
<path d="M107.045 63.1415C107.045 75.2918 85.066 102.359 85.066 102.359C85.066 102.359 63.0874 75.2918 63.0874 63.1415C63.0874 57.3068 65.403 51.711 69.5248 47.5852C73.6466 43.4594 79.2369 41.1416 85.066 41.1416C90.8951 41.1416 96.4854 43.4594 100.607 47.5852C104.729 51.711 107.045 57.3068 107.045 63.1415Z" fill="white"/>
<path d="M95.1136 62.185C95.1136 64.1742 94.5244 66.1186 93.4204 67.7725C92.3163 69.4264 90.7472 70.7154 88.9112 71.4766C87.0753 72.2378 85.0551 72.437 83.1061 72.0489C81.1571 71.6609 79.3669 70.703 77.9617 69.2965C76.5566 67.89 75.5997 66.098 75.212 64.1471C74.8243 62.1962 75.0233 60.174 75.7837 58.3364C76.5442 56.4987 77.832 54.928 79.4843 53.8229C81.1365 52.7178 83.0791 52.1279 85.0663 52.1279C86.3859 52.1273 87.6927 52.387 88.912 52.8922C90.1312 53.3974 91.2391 54.1382 92.1722 55.0722C93.1053 56.0062 93.8453 57.1152 94.3501 58.3356C94.8548 59.5561 95.1142 60.8642 95.1136 62.185Z" fill="#201942"/>
<path d="M85.066 118.237C88.3381 118.237 90.9907 115.582 90.9907 112.306C90.9907 109.031 88.3381 106.376 85.066 106.376C81.7939 106.376 79.1414 109.031 79.1414 112.306C79.1414 115.582 81.7939 118.237 85.066 118.237Z" fill="white"/>
<path d="M141.832 37.8585C146.67 37.8585 150.592 33.9329 150.592 29.0904C150.592 24.2479 146.67 20.3223 141.832 20.3223C136.995 20.3223 133.073 24.2479 133.073 29.0904C133.073 33.9329 136.995 37.8585 141.832 37.8585Z" fill="#FF6584"/>
<path d="M169.302 56.1103H126.33C126.276 56.111 126.222 56.1068 126.169 56.0976L146.493 20.8597C146.617 20.6403 146.797 20.4577 147.014 20.3307C147.232 20.2037 147.479 20.1367 147.731 20.1367C147.983 20.1367 148.231 20.2037 148.448 20.3307C148.666 20.4577 148.846 20.6403 148.97 20.8597L162.61 44.5071L163.263 45.6386L169.302 56.1103Z" fill="white"/>
<path opacity="0.2" d="M169.302 56.1101H154.63L161.832 45.6383L162.35 44.884L162.61 44.5068L163.263 45.6383L169.302 56.1101Z" fill="black"/>
<path d="M193.228 56.1098H156.061L163.263 45.6381L163.781 44.8838L173.167 31.2371C173.782 30.3427 175.262 30.287 175.985 31.0684C176.034 31.1217 176.079 31.178 176.121 31.2371L193.228 56.1098Z" fill="white"/>
<path d="M195.986 105.784C198.434 105.784 200.419 103.797 200.419 101.346C200.419 98.895 198.434 96.9082 195.986 96.9082C193.537 96.9082 191.552 98.895 191.552 101.346C191.552 103.797 193.537 105.784 195.986 105.784Z" fill="white"/>
<path d="M196.413 114.713H195.505L195.919 100.678L196.413 114.713Z" fill="#CBCBCB"/>
<path d="M195.999 103.337L196.974 101.987L195.986 103.672L195.879 103.485L195.999 103.337Z" fill="#CBCBCB"/>
<path d="M195.893 104.7L194.918 103.351L195.906 105.035L196.013 104.848L195.893 104.7Z" fill="#CBCBCB"/>
<path d="M183.38 101.525C186.996 101.525 189.928 98.5908 189.928 94.9711C189.928 91.3514 186.996 88.417 183.38 88.417C179.764 88.417 176.832 91.3514 176.832 94.9711C176.832 98.5908 179.764 101.525 183.38 101.525Z" fill="white"/>
<path d="M184.011 114.713H182.67L183.282 93.9844L184.011 114.713Z" fill="#CBCBCB"/>
<path d="M183.4 97.9126L184.839 95.9189L183.38 98.4064L183.222 98.1299L183.4 97.9126Z" fill="#CBCBCB"/>
<path d="M183.242 99.9263L181.802 97.9326L183.262 100.42L183.42 100.144L183.242 99.9263Z" fill="#CBCBCB"/>
<path d="M31.3625 105.784C33.811 105.784 35.7958 103.797 35.7958 101.346C35.7958 98.895 33.811 96.9082 31.3625 96.9082C28.914 96.9082 26.9291 98.895 26.9291 101.346C26.9291 103.797 28.914 105.784 31.3625 105.784Z" fill="white"/>
<path d="M31.79 114.713H30.882L31.2958 100.678L31.79 114.713Z" fill="#CBCBCB"/>
<path d="M31.3758 103.337L32.3508 101.987L31.3625 103.672L31.2559 103.485L31.3758 103.337Z" fill="#CBCBCB"/>
<path d="M31.2692 104.7L30.2942 103.351L31.2825 105.035L31.3892 104.848L31.2692 104.7Z" fill="#CBCBCB"/>
<path d="M18.7565 101.525C22.3727 101.525 25.3043 98.5908 25.3043 94.9711C25.3043 91.3514 22.3727 88.417 18.7565 88.417C15.1403 88.417 12.2088 91.3514 12.2088 94.9711C12.2088 98.5908 15.1403 101.525 18.7565 101.525Z" fill="white"/>
<path d="M19.3876 114.713H18.0466L18.6581 93.9844L19.3876 114.713Z" fill="#CBCBCB"/>
<path d="M18.7764 97.9126L20.216 95.9189L18.7567 98.4064L18.599 98.1299L18.7764 97.9126Z" fill="#CBCBCB"/>
<path d="M18.6187 99.9263L17.1788 97.9326L18.6384 100.42L18.7961 100.144L18.6187 99.9263Z" fill="#CBCBCB"/>
</g>
<defs>
<clipPath id="clip0_1433_1573">
<rect width="209" height="169" fill="white"/>
</clipPath>
</defs>
</svg>
